# xmcd
#
# Track frame offsets:
#	150
#	6900
#	13890
#	18660
#	24375
#	36632
#	37472
#	47230
#	55065
#	66690
#	75835
#	83885
#	94515
#	108925
#	114840
#	125945
#	126525
#	137610
#	148245
#	154065
#	165860
#	173005
#	180225
#	184400
#	191925
#	198520
#	210677
#	223437
#	231492
#	237340
#	255275
#	264240
#	274780
#	289205
#
# Disc length: 3862 seconds
#
# Revision: 1
# Processed by: cddbd v1.5.1PL0 Copyright (c) Steve Scherf et al.
# Submitted via: CDex 1.50Beta5
#
DISCID=030f1422
DTITLE=Gust - ヴィオラートのアトリエ オリジナルサウンドトラック
DYEAR=2003
DGENRE=Soundtrack
TTITLE0=海を仰ぐ
TTITLE1=茜、はるか
TTITLE2=完全村おこしマニュアル
TTITLE3=はやて
TTITLE4=バウムクーヘン
TTITLE5=大発明!
TTITLE6=にんじん村一番娘
TTITLE7=ワインの街
TTITLE8=Gothic
TTITLE9=はにかみ村
TTITLE10=スー・ザ・マジックブルーム
TTITLE11=ひぐらし
TTITLE12=デニッシュは7コール
TTITLE13=メルヘンカロッテ村
TTITLE14=キューポラしかない街
TTITLE15=大発見!
TTITLE16=大地、はるか
TTITLE17=風のフォルトーネ For Viorate.
TTITLE18=スミレ空をゆく
TTITLE19=トネリコの丘へ
TTITLE20=カロッテ村遺跡
TTITLE21=森の木魂
TTITLE22=ヴァッサメローネ
TTITLE23=幻影回廊
TTITLE24=暗闇を小走りで
TTITLE25=大王神の港
TTITLE26=夕焼け妖精フィロの舞
TTITLE27=クム・ホヌア
TTITLE28=秘密の通り道
TTITLE29=イザレヤ
TTITLE30=足音
TTITLE31=星河
TTITLE32=疾風
TTITLE33=大勝利!
EXTD=
EXTT0=
EXTT1=
EXTT2=
EXTT3=
EXTT4=
EXTT5=
EXTT6=
EXTT7=
EXTT8=
EXTT9=
EXTT10=
EXTT11=
EXTT12=
EXTT13=
EXTT14=
EXTT15=
EXTT16=
EXTT17=
EXTT18=
EXTT19=
EXTT20=
EXTT21=
EXTT22=
EXTT23=
EXTT24=
EXTT25=
EXTT26=
EXTT27=
EXTT28=
EXTT29=
EXTT30=
EXTT31=
EXTT32=
EXTT33=
PLAYORDER=
